<svg id="Calque_1" data-name="Calque 1" xmlns="http://www.w3.org/2000/svg" xmlns:xlink="http://www.w3.org/1999/xlink" viewBox="0 0 31.39 25.97"><defs><style>.cls-1{fill:#fff;}.cls-2{fill:url(#Dégradé_sans_nom_7);}</style><linearGradient id="Dégradé_sans_nom_7" x1="5.49" y1="17.46" x2="26.51" y2="17.46" gradientUnits="userSpaceOnUse"><stop offset="0" stop-color="#bd4bf9"/><stop offset="1" stop-color="#6157c8"/></linearGradient></defs><path class="cls-1" d="M15.8,29c-7.41-.1-11.6-6-12.24-6.88C-1,15.56-.59,5.19,3.56,3.33,6.63,2,11.67,5.26,16,10.15c4.32-4.9,9.37-8.2,12.43-6.82,4.15,1.86,4.54,12.24,0,18.78C27.84,23,23.43,29.09,15.8,29Z" transform="translate(-0.31 -3.01)"/><path class="cls-2" d="M15.86,26.13c-4.95-.07-7.76-4-8.19-4.6-3-4.38-2.78-11.33,0-12.58C9.73,8,13.11,11.36,16,14.64,18.9,11.36,22.27,8,24.32,9c2.78,1.25,3,8.2,0,12.58C23.92,22.11,21,26.2,15.86,26.13Z" transform="translate(-0.31 -3.01)"/></svg>