<svg id="Calque_1" data-name="Calque 1" xmlns="http://www.w3.org/2000/svg" viewBox="0 0 32 32"><defs><style>.cls-1{fill:#4e3da0;}.cls-1,.cls-2{stroke:#4e3da0;stroke-miterlimit:10;stroke-width:0.4px;}.cls-2{fill:#fff;}</style></defs><path class="cls-1" d="M31.76,16a15.75,15.75,0,0,1-10.7,14.92,15.44,15.44,0,0,1-5.06.84A15.76,15.76,0,0,1,12.27.68a4,4,0,0,0-.35,1.63V22.23a4,4,0,0,0,8,0V2.31A3.93,3.93,0,0,0,19.53.64,15.77,15.77,0,0,1,31.76,16Z"/><path class="cls-2" d="M10.77,10.82V30.87a15.81,15.81,0,0,1-8-6.27V10.82a4,4,0,1,1,8,0Z"/><path class="cls-2" d="M29,10.82v14a15.76,15.76,0,0,1-8,6.07V10.82a4,4,0,1,1,8,0Z"/><path class="cls-2" d="M19.91,2.31V22.23a4,4,0,0,1-8,0V2.31A4,4,0,0,1,12.27.68h0A16.26,16.26,0,0,1,16,.24a15.72,15.72,0,0,1,3.53.4A3.93,3.93,0,0,1,19.91,2.31Z"/></svg>