<svg id="Calque_1" data-name="Calque 1" xmlns="http://www.w3.org/2000/svg" viewBox="0 0 32 32"><defs><style>.cls-1{fill:#0c0c0c;}.cls-2{fill:#efefef;}.cls-3{fill:#111;}</style></defs><rect class="cls-1" x="0.35" y="0.35" width="31.29" height="31.29" rx="6.19"/><rect class="cls-2" x="2.58" y="2.58" width="26.84" height="26.84" rx="4.86"/><path class="cls-3" d="M7.38,26.76c-6-3.34-4.47-20.82,0-22.1,1.71-.49,4.47,1.23,9.1,8.36,4.16-7,6.69-8.78,8.3-8.36,4.28,1.11,5.78,19.07,0,22.1a3.81,3.81,0,0,1-3.81,0c-2.76-2.18,1-10.89-.16-11.32-.73-.28-2,3.51-4.33,3.62s-4-3.71-4.78-3.35c-1.17.53,2.88,8.71.28,11.05C10.86,27.76,8.74,27.51,7.38,26.76Z"/></svg>